<svg
   width="48"
   height="48"
   viewBox="0 0 12.7 12.7"
   version="1.1"
   xmlns="http://www.w3.org/2000/svg"
>
  <g>
    <g transform="scale(0.09375)">
      <circle
        style="fill:#000000;stroke-width:0.440006;paint-order:stroke fill markers"
        cx="67.73333"
        cy="67.73333"
        r="67.73333"
      />
      <g transform="matrix(1.0416657,0,0,1.0416667,19.502038,28.045833)">
        <g
          transform="matrix(1.0327828,0,0,1.0339469,-227.28331,-0.81522315)"
          style="fill:#ffffff"
        >
          <path
            style="fill:#ffffff;fill-opacity:1;stroke-width:0.0225273;paint-order:stroke fill markers"
            d="M 220.06925,13.065838 V 8.9883949 h 3.96021 3.96021 l 0.0218,-3.2551951 c 0.0222,-3.3117129 0.0502,-3.9139442 0.20356,-4.3759067 0.0614,-0.185084 0.10795,-0.2460466 0.23434,-0.3070939 0.28848,-0.1393349 1.08429,-0.1780408 4.14502,-0.2015993 3.05011,-0.0234685 11.56345,0.0444156 11.61163,0.0925989 0.0307,0.0306705 0.17452,7.9467391 0.14486,7.9718243 -0.0109,0.00921 -1.82135,0.049035 -4.0233,0.088535 -2.20195,0.0395 -4.00995,0.078221 -4.01778,0.086051 -0.0133,0.013282 -0.15689,7.1546749 -0.15634,7.7740799 l 2.5e-4,0.281591 h -8.04225 -8.04225 z"
          />
          <path
            style="fill:#ffffff;fill-opacity:1;stroke-width:0.0225273;paint-order:stroke fill markers"
            d="m 236.19984,24.926463 c 5.3e-4,-0.229213 0.0305,-1.917072 0.0665,-3.750796 0.036,-1.833722 0.0659,-3.450619 0.0666,-3.593105 l 0.001,-0.259065 h 3.94228 c 2.16825,0 3.94334,0.0051 3.94464,0.01127 0.0116,0.05508 0.12989,6.517058 0.13115,7.163681 l 0.002,0.844775 h -4.07744 -4.07744 z"
          />
          <path
            style="fill:#ffffff;fill-opacity:1;stroke-width:0.0225273;paint-order:stroke fill markers"
            d="m 220.06925,29.465716 v -4.077441 h 8.04225 8.04225 l -0.002,0.77719 c -0.002,1.213913 -0.12329,7.202212 -0.14575,7.224665 -0.0191,0.0191 -12.96386,0.150696 -14.97975,0.152278 l -0.95741,7.94e-4 z"
          />
          <path
            style="fill:#ffffff;fill-opacity:1;stroke-width:0.0225273;paint-order:stroke fill markers"
            d="m 252.59973,25.084155 c 5.3e-4,-0.142486 0.0305,-5.074274 0.0665,-10.959534 0.036,-5.8852588 0.066,-11.2630896 0.0665,-11.9507364 l 0.001,-1.25026474 h 3.94228 c 2.16825,0 3.94406,0.00508 3.94625,0.0112713 0.0111,0.0314193 0.12621,19.56838484 0.12852,21.80643184 l 0.003,2.601904 h -4.07744 -4.07745 z"
          />
          <path
            style="fill:#ffffff;fill-opacity:1;stroke-width:0.0225273;paint-order:stroke fill markers"
            d="m 262.15302,33.454053 c -0.93034,-0.03113 -1.10927,-0.04805 -1.15395,-0.109157 -0.12254,-0.167589 -0.19693,-2.253535 -0.19898,-5.579991 l -0.002,-2.37663 h 4.09459 4.09459 l 0.0281,-2.489269 c 0.0154,-1.369097 0.0507,-6.868575 0.0782,-12.221061 0.0276,-5.3524893 0.0567,-9.73907456 0.0648,-9.7479672 0.0266,-0.0293 3.34577,-0.0923105 4.95337,-0.0940356 2.01162,-0.002117 2.63996,0.0683604 2.76974,0.3108431 0.0788,0.1471718 0.13676,1.0139786 0.18669,2.7900815 0.0526,1.8700935 0.0208,28.0226552 -0.0352,28.9797562 l -0.0279,0.477303 -1.49171,0.02936 c -2.44446,0.04811 -12.17274,0.07051 -13.36085,0.03077 z"
          />
          <path
            style="fill:#ffffff;fill-opacity:1;stroke-width:0.0225273;paint-order:stroke fill markers"
            d="M 285.39843,17.165808 V 0.78845747 l 1.49807,0.001852 c 2.22372,0.002752 14.45405,0.1207426 14.47058,0.13958623 0.0168,0.0191558 0.16566,7.9798623 0.14944,7.9922422 -0.006,0.00466 -1.44042,0.031753 -3.18741,0.060238 -1.74699,0.028485 -3.5565,0.064556 -4.02113,0.080156 l -0.84477,0.028363 v 8.0746911 8.074694 l 1.1151,0.02895 c 0.61331,0.01593 2.42281,0.05174 4.02113,0.07959 1.59831,0.02785 2.91082,0.0546 2.91668,0.05946 0.0136,0.01124 -0.131,7.972919 -0.14509,7.989556 -0.0115,0.01363 -13.47922,0.143246 -15.01519,0.144516 l -0.95741,7.93e-4 z"
          />
          <path
            style="fill:#ffffff;fill-opacity:1;stroke-width:0.0225273;paint-order:stroke fill markers"
            d="m 301.55023,25.084155 c 0.0115,-0.142486 0.0422,-3.644918 0.0684,-7.783184 0.0261,-4.138266 0.0587,-7.6711097 0.0724,-7.8507644 l 0.0249,-0.3266466 h 3.93843 3.93843 v 0.957411 c 3e-5,1.176279 0.0762,9.90461 0.11346,12.998254 l 0.0273,2.263994 h -4.10207 -4.10206 z"
            />
        </g>
        <g
          transform="matrix(1.0344117,0,0,1.0339411,-362.84334,41.518115)"
          style="fill:#ffffff"
        >
          <path
            style="fill:#ffffff;fill-opacity:1;stroke-width:0.0225273;paint-order:stroke fill markers"
            d="M 350.77266,17.165808 V 0.78845747 l 2.06127,0.001852 c 1.67817,0.001587 22.03812,0.12212373 22.07675,0.13079412 0.006,0.001323 0.0114,7.30907211 0.0114,16.23929441 v 16.236764 l -2.98487,0.02857 c -3.01107,0.02882 -18.30361,0.118063 -20.16194,0.117653 l -1.00248,-2.2e-4 z m 16.12956,0 V 8.9433417 l -0.68707,7.937e-4 c -0.90464,7.938e-4 -7.38651,0.12827 -7.40371,0.1454759 -0.007,0.00733 -0.0377,2.4864327 -0.0675,5.5090987 -0.0501,5.090578 -0.0362,10.186471 0.0286,10.412478 0.0874,0.305266 0.85503,0.360273 5.16731,0.370303 l 2.96233,0.0069 z"
          />
          <path
            style="fill:#ffffff;fill-opacity:1;stroke-width:0.0225273;paint-order:stroke fill markers"
            d="m 383.32371,28.846215 c 0.0343,-5.813856 0.1134,-24.177815 0.11348,-26.3344205 l 8e-5,-1.58817464 h 3.93843 3.93843 l 0.0251,0.32664664 c 0.0138,0.1796547 0.0467,1.8675138 0.073,3.7507968 0.0262,1.883283 0.0585,3.547901 0.0716,3.6991554 l 0.0238,0.2750053 2.08089,0.031985 c 3.5964,0.055277 5.89579,0.1091142 5.92542,0.1387343 0.0156,0.015716 0.0526,1.4008477 0.0819,3.0780707 0.0293,1.677225 0.0618,3.470198 0.072,3.984384 l 0.0188,0.934881 h -4.1149 -4.11494 l -0.003,1.903558 c -0.005,3.20816 -0.11305,14.311945 -0.13964,14.33852 -0.0246,0.02468 -6.18787,0.155538 -7.39585,0.157032 l -0.62254,7.94e-4 z"
          />
          <path
            style="fill:#ffffff;fill-opacity:1;stroke-width:0.0225273;paint-order:stroke fill markers"
            d="m 399.83615,32.292892 c 0,-0.613304 -0.03,-4.256916 -0.0655,-8.096911 -0.0355,-3.839996 -0.0553,-6.99102 -0.044,-7.002275 0.0238,-0.02368 6.11645,0.07169 7.2404,0.113342 l 0.75467,0.02797 v 8.036488 8.036491 h -3.94229 -3.94227 z"
          />
          <path
            style="fill:#ffffff;fill-opacity:1;stroke-width:0.0225273;paint-order:stroke fill markers"
            d="m 399.7183,7.879767 c 0.0159,-0.5920873 0.0517,-2.3943681 0.0795,-4.0050693 0.0278,-1.610704 0.0568,-2.9356738 0.0645,-2.94437859 0.0367,-0.0414443 4.04781,-0.10191221 5.40393,-0.0814652 1.50857,0.0227542 1.9631,0.0638413 2.21353,0.20013609 0.12314,0.067016 0.23132,0.3393811 0.2866,0.7215241 0.0729,0.503801 0.0351,6.863527 -0.0415,6.9874526 -0.0254,0.040997 -0.98087,0.066008 -6.4185,0.1679919 l -1.61701,0.030327 z"
          />
          <path
            style="fill:#ffffff;fill-opacity:1;stroke-width:0.0225273;paint-order:stroke fill markers"
            d="M 416.10186,13.065838 V 0.78845747 l 0.84479,0.001852 c 1.14096,0.002381 6.90507,0.11833225 6.92351,0.13925021 0.008,0.009155 0.0374,4.63926492 0.0652,10.28911432 0.0278,5.649846 0.0628,11.139188 0.0779,12.198535 l 0.0274,1.926084 h -3.96939 -3.96938 z"
          />
          <path
            style="fill:#ffffff;fill-opacity:1;stroke-width:0.0225273;paint-order:stroke fill markers"
            d="m 425.39008,33.454154 c -0.6033,-0.02022 -1.1163,-0.05615 -1.14003,-0.07988 -0.10618,-0.106185 -0.1383,-0.99043 -0.15957,-4.392893 l -0.0225,-3.593105 h 4.10424 4.10424 l 2.7e-4,-8.639222 c 2.6e-4,-8.3288164 0.0414,-12.8231611 0.13472,-14.7215941 0.0404,-0.8225526 0.0523,-0.9077114 0.13629,-0.9770375 0.2195,-0.18121575 0.47519,-0.19466187 3.57764,-0.18812402 1.6337,0.00344 3.24046,0.0207169 3.57058,0.0384069 l 0.60021,0.0321469 V 17.163223 33.393598 l -1.52059,0.02942 c -2.49084,0.04819 -12.20179,0.07078 -13.38551,0.03113 z"
          />
        </g>
      </g>
    </g>
  </g>
</svg>
